<svg xmlns="http://www.w3.org/2000/svg" xmlns:xlink="http://www.w3.org/1999/xlink" width="158.15mm" height="136.96mm" viewBox="0 0 448.29 388.23"><defs><style>.b0639aeb-c24d-491c-88dc-f6f037609e83{fill:none;}.b9b742f3-e3d1-4c32-87d5-909cfadd7f50,.be78c7e6-a56d-4eba-b653-f534e137b9e7{fill:#fff;}.a4205c51-3b24-4d22-bb47-c43ed487367c{clip-path:url(#eb3b0ef5-b124-4fdd-95c3-0e9ffa9b25f8);}.b9b742f3-e3d1-4c32-87d5-909cfadd7f50{fill-rule:evenodd;}</style><clipPath id="eb3b0ef5-b124-4fdd-95c3-0e9ffa9b25f8"><polygon class="b0639aeb-c24d-491c-88dc-f6f037609e83" points="324.87 19.66 123.42 19.66 22.7 194.12 123.42 368.57 324.87 368.57 425.59 194.12 324.87 19.66"/></clipPath></defs><g id="ae1ce1a5-1e26-43bd-9f2d-f242e6ae7b95" data-name="Layer 2"><polygon class="be78c7e6-a56d-4eba-b653-f534e137b9e7" points="330.44 10 117.85 10 11.55 194.12 117.85 378.23 330.44 378.23 436.74 194.12 330.44 10"/><g class="a4205c51-3b24-4d22-bb47-c43ed487367c"><polygon points="413.82 317.88 413.82 300.92 414.56 300.92 414.56 297.02 397.99 297.02 397.99 300.92 398.98 300.92 398.98 317.88 396.6 317.88 396.6 314.13 391.85 314.13 391.85 312.66 390.82 312.66 390.82 314.13 386.43 314.13 386.43 317.88 383.73 317.88 383.73 306.83 378.04 306.83 378.08 303.26 368.93 303.26 368.93 306.83 364.87 306.83 364.87 303.26 357.8 303.26 357.8 294.49 353.75 294.49 353.75 292.34 343.17 292.34 343.17 294.49 339.12 294.49 339.12 320.82 339 320.75 337.66 321.66 337.66 289.32 335.31 289.32 335.31 285.42 331.39 285.42 331.39 282.93 329.19 282.93 329.19 280.05 327.12 280.05 327.12 282.93 326.38 282.93 326.38 280.05 324.3 280.05 324.3 282.93 322.52 282.93 322.52 285.42 318.6 285.42 318.6 289.32 316.24 289.32 316.24 310.39 313.27 310.39 313.27 266.81 309.76 266.81 309.76 261.85 307.43 261.85 307.43 257.32 302.84 242.17 298.29 257.17 298.27 261.85 296.13 261.85 296.13 266.81 292.56 266.81 292.56 306.1 290.24 306.1 290.24 304.43 288.12 304.43 288.12 306.1 285.56 306.1 285.56 277.83 279.91 277.83 279.91 271.71 277.88 271.71 277.88 269.14 273.95 269.14 273.95 263.65 271.84 263.65 271.84 269.14 270.51 269.14 270.51 263.65 268.39 263.65 268.39 269.14 265.29 269.14 265.29 271.71 262.34 271.71 262.34 269.14 261.29 269.14 261.29 268.39 250.94 268.39 250.94 269.14 249.75 269.14 249.75 271.71 248.14 271.71 248.14 277.83 243 277.83 243 300.94 240.59 300.94 240.59 268.56 237.41 268.56 237.41 255.72 235.31 255.72 235.31 250.22 231.03 231.32 226.77 250.09 226.76 255.72 224.83 255.72 224.83 268.56 221.6 268.56 221.6 307.19 219.07 307.19 219.07 230.44 210.08 235.8 210.08 225.11 197.87 220.38 197.87 293.77 196.16 293.77 196.16 267.33 193.53 266.23 193.53 256.52 186.51 253.57 186.51 245.85 184.11 245.85 184.11 252.56 177.43 249.75 177.43 259.45 174.58 258.25 174.58 298.51 170.85 298.51 170.85 261.42 168.01 261.42 168.01 257.08 165.27 257.08 165.27 253.09 163.25 253.09 163.25 249.74 161.95 249.74 161.95 246.15 159.04 246.15 159.04 238.58 157.05 238.58 157.05 246.15 154.14 246.15 154.14 249.74 152.84 249.74 152.84 253.09 150.82 253.09 150.82 257.08 148.08 257.08 148.08 261.42 145.24 261.42 145.24 314.37 143.67 314.37 143.67 294.29 139.62 294.29 139.62 292.13 129.05 292.13 129.05 294.29 127.39 294.29 127.39 284.79 123.38 284.79 123.38 277.99 122.13 277.99 122.13 275.14 121.2 275.14 121.2 274.31 119.2 274.31 119.2 275.14 118.55 275.14 118.55 274.31 116.55 274.31 116.55 275.14 116.08 275.14 116.08 274.31 113.97 274.31 113.97 275.14 113.15 275.14 113.15 277.99 110 277.99 110 275.14 107.58 275.14 107.58 269.05 106.32 269.05 106.32 275.14 105.35 275.14 105.35 269.05 104.09 269.05 104.09 275.14 101.02 275.14 101.02 277.99 99.44 277.99 99.44 284.79 95.03 284.79 95.03 320.69 92.31 319.52 92.31 309.5 90.11 309.5 90.11 287.38 87.75 287.38 87.75 284.32 83.83 284.32 83.83 282.38 81.63 282.38 81.63 280.12 79.56 280.12 79.56 282.38 78.82 282.38 78.82 280.12 76.75 280.12 76.75 282.38 74.96 282.38 74.96 284.32 71.04 284.32 71.04 287.38 68.69 287.38 68.69 305.21 65.09 305.21 65.09 303.54 62.97 303.54 62.97 305.21 58.57 305.21 58.57 309.5 56.02 309.5 56.02 300.79 51.33 300.79 51.37 296.78 44.77 296.78 44.77 300.79 40.51 300.79 40.51 296.78 33.82 296.78 33.82 300.79 29.22 300.79 29.22 390.9 52.79 390.9 56.02 390.9 76.58 390.9 92.31 390.9 95.03 390.9 103.73 390.9 125 390.9 125.75 390.9 127.39 390.9 143.67 390.9 145.24 390.9 162.63 390.9 169.88 390.9 170.85 390.9 197.87 390.9 203.96 390.9 207.76 390.9 210.08 390.9 216.06 390.9 219.07 390.9 221.6 390.9 238.52 390.9 240.59 390.9 242.64 390.9 243 390.9 255.01 390.9 257.35 390.9 277.93 390.9 278.17 390.9 285.56 390.9 316.24 390.9 317.46 390.9 331.25 390.9 337.66 390.9 339.12 390.9 347.34 390.9 350.02 390.9 357.8 390.9 380.64 390.9 383.73 390.9 419.07 390.9 419.07 317.88 413.82 317.88"/></g><path d="M336.22,388.23H112.07L0,194.12,112.07,0H336.22L448.29,194.12Zm-212.6-20H324.67L425.2,194.12,324.67,20h-201L23.09,194.12Z"/><path class="b9b742f3-e3d1-4c32-87d5-909cfadd7f50" d="M180.23,336H158.3c0,12.6,0,9.45,0,22.05h22.06V336Zm1.31-5h0a3.73,3.73,0,0,1,3.8,3.69v24.79a3.72,3.72,0,0,1-3.09,3.54c-.46.09,1,.08-10.24.07H156.86a3.75,3.75,0,0,1-3.58-3.7V334.61a3.77,3.77,0,0,1,4-3.64C158.55,331,179.66,331,181.54,331Z"/><path class="b9b742f3-e3d1-4c32-87d5-909cfadd7f50" d="M177.16,339.41h0l0,0V355H161.54l5-5c.15-.06,0-.06,1-.06h4.71V344.4Z"/><path class="b9b742f3-e3d1-4c32-87d5-909cfadd7f50" d="M194.39,339.24h0a2.86,2.86,0,0,0-.58,0,2.63,2.63,0,0,0-2,2.92,2.47,2.47,0,0,0,2.58,2.37,2.68,2.68,0,0,0,0-5.32Zm.27-2.38h0a5.09,5.09,0,0,1,4.71,5.24,5.16,5.16,0,0,1-1.38,3.26,5.08,5.08,0,1,1-3.33-8.5Z"/><path class="b9b742f3-e3d1-4c32-87d5-909cfadd7f50" d="M194.64,357.43l3.28-7.91c.1-.22.13-.23.54-.24.14,0,.14,0,.24.15s.32-.59-2,5l-1.86,4.44-.46,0c-.16-.12-.11,0-.36-.64l-3.62-8.65c0-.14.11-.25.31-.24.42,0,.29-.19.93,1.33l2.87,6.86S194.6,357.49,194.64,357.43Z"/><path class="b9b742f3-e3d1-4c32-87d5-909cfadd7f50" d="M200.94,353.92h0V358h5.26v.61c0,.17-.13.21-.48.21h-5.62l0-9.38c0-.12.13-.17.32-.16.4,0,.34,0,.41.07s.08-.44.07,3.75Z"/><path class="b9b742f3-e3d1-4c32-87d5-909cfadd7f50" d="M205.78,339.3a1,1,0,0,0-.63-.3l-1.47,0v2.43h1.22a1.1,1.1,0,0,0,1.19-.73A1.25,1.25,0,0,0,205.78,339.3Zm2.7,2.24h0a3.21,3.21,0,0,1-1.09,1.27l-.24.17,1.93,3.55a.22.22,0,0,1-.14.3h-2.42c-.11,0-.15-.09-.27-.34l-1.52-2.95h-1l0,3.12a.31.31,0,0,1-.29.17c-.21,0-2,0-2.09,0s-.21-.13-.21-.52c0-5.22,0-3.91,0-9.13,0-.19.18-.24.62-.23h3.7a3.24,3.24,0,0,1,2.92,1.55,3.15,3.15,0,0,1,.2,2.95Z"/><path class="b9b742f3-e3d1-4c32-87d5-909cfadd7f50" d="M211.9,352h0c-.64-1.57-.55-1.37-.6-1.38l-.09,0-2,4.95h4.21Zm1.46,1.53h0c2.41,5.73,2.11,5,2.07,5.11s-.1.13-.35.14c-.44,0-.31.19-.92-1.28l-.45-1.09h-4.89l-.94,2.29c-.07.07-.23.1-.54.08-.16,0-.24-.09-.23-.21a30.28,30.28,0,0,1,1.43-3.47c1.39-3.31,1-2.48,2.44-5.78.06-.09.16-.11.41-.09s.2.08.29.29Z"/><path class="b9b742f3-e3d1-4c32-87d5-909cfadd7f50" d="M212.82,337c.12.05.18.16.19.35l0,9.29a.52.52,0,0,1-.18.18c-.08,0-.26,0-2.41,0,0-5.51,0-4.13,0-9.65,0-.19.11-.23.43-.23C213,337,212.72,337,212.82,337Z"/><path class="b9b742f3-e3d1-4c32-87d5-909cfadd7f50" d="M217.65,340.55h0v.38c3.93,0,3.43,0,3.52.07s.13-.06.12,1.49c0,.32-.11.39-.55.39h-3.08v1.71c5.2,0,4.54,0,4.62,0s.15,0,.15,1.15v.56a.63.63,0,0,1-.06.35l-.1.17h-7c-.18,0-.23-.13-.23-.49l0-9.15c.06-.23.11-.24.64-.24H222c.24.07.24.11.23,1.28v.68c-.05.25-.14.3-.54.3h-4.08Z"/><path class="b9b742f3-e3d1-4c32-87d5-909cfadd7f50" d="M221.19,352h0c-.61-1.5-.54-1.36-.61-1.37l-.08,0c-1.17,2.84-.88,2.13-2.06,5h4.23Zm1.46,1.57h0c2.39,5.72,2.09,5,2.06,5.09s-.11.15-.51.14H224l-1-2.36h-4.89l-1,2.37-.64,0c-.1,0-.14-.14-.11-.28l3.85-9.17c.06-.08.2-.1.46-.08s0-.23.86,1.76Z"/><path class="b9b742f3-e3d1-4c32-87d5-909cfadd7f50" d="M232.93,337.09h0c.07.1.06-.72.06,6.36,0,3.67,0,3.21,0,3.24-.17.18,0,.15-1.37.16s-1.18,0-1.32-.14a19.52,19.52,0,0,1-1.53-2.52L226.85,341h-.06c-.06,0,0-.76,0,5.49v.34h-2.28a.29.29,0,0,1-.22-.31v-9.36c.06-.15.15-.19.43-.2.52,0,2,0,2.12,0s0-.21,1.31,1.85l2.17,3.55a.09.09,0,0,0,.09,0,13.79,13.79,0,0,0,0-1.73c0-3.93,0-3.43.08-3.54s-.21-.1,2.18-.1A.35.35,0,0,1,232.93,337.09Z"/><path class="b9b742f3-e3d1-4c32-87d5-909cfadd7f50" d="M233.91,349.28h0c.25,0,.26,0,.26.65v8.86l-.49,0c-.2,0,0,.22-1.51-1.7l-5.1-6.43c-.06,0-.09,0-.11,0v7.83c0,.26-.15.32-.53.29-.2,0-.21-.07-.21-.72,0-4.95,0-3.71,0-8.67,0-.15.09-.17.48-.17.16,0,.18,0,.32.22l6.32,7.88s.06,0,.08-.08c0-4.39,0-3.29,0-7.68,0-.3.06-.33.37-.33Z"/><path class="b9b742f3-e3d1-4c32-87d5-909cfadd7f50" d="M239.36,337h0c3.15,0,2.75,0,2.83.08s.11-.12.1,1.82a.35.35,0,0,1-.36.38h-2.24v7.37c-.06.19-.17.24-.48.24-2.25,0-1.95,0-2.07-.16s0,.77,0-5.95v-1.5h-2.36c-.15,0-.23-.18-.23-.39,0-1.94,0-1.68.12-1.8s-.23-.06,2.17-.06Z"/><path class="b9b742f3-e3d1-4c32-87d5-909cfadd7f50" d="M242.35,351.21h0a4,4,0,0,0-1.88-1c-.5-.11-.28-.11-2.74-.11l-.67,0V358h2.27a4,4,0,0,0,3.93-2.51A3.88,3.88,0,0,0,242.35,351.21Zm.54-.62h0a4.77,4.77,0,0,1,1.21,5.07,4.82,4.82,0,0,1-4.49,3.17h-3.39c0-5.46,0-4.09,0-9.54,1.35,0,.88,0,3.28,0A4.84,4.84,0,0,1,242.89,350.59Z"/><path class="b9b742f3-e3d1-4c32-87d5-909cfadd7f50" d="M246.5,340.5h0v.43c3.93,0,3.43,0,3.5.07s.13-.06.12,1.51c0,.32-.09.37-.54.37H246.5v1.7c5.23,0,4.57,0,4.62,0s.16,0,.15,1c0,.56,0,.42,0,1l-.15.28H243.9c0-5.52,0-4.14,0-9.66,0-.17.16-.23.44-.23l6.54,0a.31.31,0,0,1,.23.29c0,.2,0,1.65,0,1.74s-.12.22-.55.22h-4Z"/><path class="b9b742f3-e3d1-4c32-87d5-909cfadd7f50" d="M247.69,353.39h0c4.56,0,4,0,4.06.07s.09,0,.08.74h-4.76V358h6v.83h-6.8v-9.55h6.7v.81h-5.87v3.31Z"/><path class="b9b742f3-e3d1-4c32-87d5-909cfadd7f50" d="M255.49,340.5h0v.42c3.91,0,3.41,0,3.51.09s.1-.1.09,1.6c0,.24-.11.27-.54.27h-3.07v1.69h4.7l.07.64v1.19l-.08.3-.07.14h-7.23l0-9.66c0-.18.15-.24.44-.23l6.54,0c.17,0,.23.17.24.54,0,1.51,0,1.52-.16,1.66s.56.05-4.46.05Z"/><path class="b9b742f3-e3d1-4c32-87d5-909cfadd7f50" d="M260,350.59h0a2.3,2.3,0,0,0-1.82-.6c-2,0-1.56,0-2.9,0v4.53l3.16,0a2.19,2.19,0,0,0,2.13-1.4A2.28,2.28,0,0,0,260,350.59Zm1,3.27a3.16,3.16,0,0,1-1.06,1l-.24.12,1.63,3.61c0,.14,0,.18-.2.2-.4,0-.52,0-.62-.22l-1.52-3.38h-3.73v3.44c0,.13-.31.21-.56.14s-.15.17-.15-1.56c0-4.55,0-3.42,0-8h4.18a3,3,0,0,1,2.42,1.7A3,3,0,0,1,261,353.86Z"/><path class="b9b742f3-e3d1-4c32-87d5-909cfadd7f50" d="M266.77,339.29h0c-.25-.24-.46-.3-1.06-.31l-1,0v2.44H266a1,1,0,0,0,1.05-.72A1.24,1.24,0,0,0,266.77,339.29Zm2.71,2.25h0a3.26,3.26,0,0,1-1.08,1.26l-.25.17,1.93,3.58a.21.21,0,0,1-.15.27,11.83,11.83,0,0,1-2.31,0c-.2,0-.24-.06-.37-.33-.88-1.7-.66-1.27-1.53-3l-1,0v3.07c-.05.18-.12.22-.52.22-2.18,0-1.89,0-2-.13s-.05.87-.05-6.84c0-3.07,0-2.68,0-2.75s.12-.19,1-.18l3.74,0a3.22,3.22,0,0,1,2.58,1.67A3.1,3.1,0,0,1,269.48,341.54Z"/><path class="b9b742f3-e3d1-4c32-87d5-909cfadd7f50" d="M264.48,353.38h4.18l0,.67c-.06.15.19.13-1.79.13h-3c0,2.18,0,1.64,0,3.82h5.94v.64c0,.13-.16.18-.41.18h-6.37v-9.55h6.71v.82h-5.89v3.29Z"/><path class="b9b742f3-e3d1-4c32-87d5-909cfadd7f50" d="M279.2,349.36h0c.07.08.07-.38.06,4.49v4.92l-.4.06c-.29,0-.13.15-1.13-1.12-3.2-4-2.4-3-5.61-7.06a.05.05,0,0,0-.08,0v7.87c0,.24-.19.32-.57.26-.18,0-.16.44-.15-3.31v-6.06c0-.16.13-.19.56-.16.1,0-.16-.3,1.81,2.17l4.73,5.91a.07.07,0,0,0,.1,0v-7.72c0-.22,0-.28.16-.32a.77.77,0,0,1,.49,0Z"/><path class="b9b742f3-e3d1-4c32-87d5-909cfadd7f50" d="M273.63,337h0c.27,0,.36.16.36.5v9.13c-.05.22-.14.26-.54.26-2.25,0-1.95,0-2.05-.18s0,.54,0-4.47c0-5.71,0-5,0-5.08s0-.17,1.25-.17Z"/><path class="b9b742f3-e3d1-4c32-87d5-909cfadd7f50" d="M284.85,337.11h0c.06.05,0-.68,0,5.13v4.55l-.61.07h-1.86c-.25,0,.11.51-2.5-3.86l-1.15-1.94s-.1,0-.11,0v5.44c0,.2,0,.17-.14.3s.18.05-2.09,0c-.25,0-.29-.12-.29-.55,0-5.19,0-3.89,0-9.08.06-.24.18-.28.8-.26h1.48c.51,0,.27-.29,1.72,2.1,1.15,1.89.86,1.42,2,3.3a.05.05,0,0,0,.08,0,36.47,36.47,0,0,0,0-4.31c0-1,0-.84.14-1s-.21-.05,2.14,0C284.74,337,284.73,337,284.85,337.11Z"/><path class="b9b742f3-e3d1-4c32-87d5-909cfadd7f50" d="M293.68,339.61h0l-.18.25c-.33-.19-.25-.14-.59-.32a2.46,2.46,0,0,0-3,.45,2.94,2.94,0,0,0-.43,3.23,2.41,2.41,0,0,0,2.74,1.3l.35-.07c0-2.11,0-1.82.12-2s-.18-.07,1.9-.07c.28,0,.38.16.38.5,0,3.5,0,3-.09,3.16a5.28,5.28,0,0,1-2.83.88,5,5,0,0,1-3.74-1.23,5,5,0,0,1-.72-6.81,5.16,5.16,0,0,1,6.85-1.28l.38.32Z"/><path d="M196.7,108.09v8.37c0,10.08-5,15.84-14.76,15.84s-14.76-5.76-14.76-15.84V83.7c0-10.08,5-15.84,14.76-15.84S196.7,73.62,196.7,83.7v6.12h-9.36V83.07c0-4.5-2-6.21-5.13-6.21s-5.13,1.71-5.13,6.21v34c0,4.5,2,6.12,5.13,6.12s5.13-1.62,5.13-6.12v-9Z"/><path d="M202.73,68.58h9.9v63h-9.9Z"/><path d="M216.94,68.58h30.6v9H237.19v54h-9.9v-54H216.94Z"/><path d="M261.13,110.7,248.62,68.58H259l7.56,28.71,7.56-28.71h9.45L271,110.7v20.88h-9.9Z"/><path d="M204,188.09v8.37c0,10.08-5,15.84-14.76,15.84s-14.76-5.76-14.76-15.84V163.7c0-10.08,5-15.84,14.76-15.84S204,153.62,204,163.7v6.12h-9.36v-6.75c0-4.5-2-6.21-5.13-6.21s-5.13,1.71-5.13,6.21v34c0,4.5,2,6.12,5.13,6.12s5.13-1.62,5.13-6.12v-9Z"/><path d="M219.47,148.58v48.6c0,4.5,2,6.12,5.13,6.12s5.13-1.62,5.13-6.12v-48.6h9.35v48c0,10.08-5,15.84-14.76,15.84s-14.75-5.76-14.75-15.84v-48Z"/><path d="M275.17,164.15v8.19c0,10.08-4.86,15.57-14.76,15.57h-4.67v23.67h-9.91v-63h14.58C270.31,148.58,275.17,154.07,275.17,164.15Zm-19.43-6.57v21.33h4.67c3.15,0,4.86-1.44,4.86-5.94v-9.45c0-4.5-1.71-5.94-4.86-5.94Z"/></g></svg>