<?xml version="1.0" encoding="UTF-8" standalone="no"?>
<!-- Created with Inkscape (http://www.inkscape.org/) -->

<svg
   width="582.31152"
   height="203.82755"
   viewBox="0 0 154.06993 53.929371"
   version="1.1"
   id="svg5"
   inkscape:version="1.1 (c4e8f9ed74, 2021-05-24)"
   sodipodi:docname="forest-cup-master.svg"
   xmlns:inkscape="http://www.inkscape.org/namespaces/inkscape"
   xmlns:sodipodi="http://sodipodi.sourceforge.net/DTD/sodipodi-0.dtd"
   xmlns="http://www.w3.org/2000/svg"
   xmlns:svg="http://www.w3.org/2000/svg">
  <sodipodi:namedview
     id="namedview7"
     pagecolor="#ffffff"
     bordercolor="#666666"
     borderopacity="1.0"
     inkscape:pageshadow="2"
     inkscape:pageopacity="0.0"
     inkscape:pagecheckerboard="0"
     inkscape:document-units="mm"
     showgrid="true"
     units="px"
     width="451px"
     inkscape:snap-global="true"
     inkscape:snap-grids="false"
     fit-margin-top="0"
     fit-margin-left="0"
     fit-margin-right="0"
     fit-margin-bottom="0"
     inkscape:zoom="1.0289025"
     inkscape:cx="228.88466"
     inkscape:cy="328.99133"
     inkscape:window-width="1548"
     inkscape:window-height="1088"
     inkscape:window-x="274"
     inkscape:window-y="185"
     inkscape:window-maximized="0"
     inkscape:current-layer="layer1">
    <inkscape:grid
       type="xygrid"
       id="grid68747"
       originx="-28.565094"
       originy="0.24394633" />
  </sodipodi:namedview>
  <defs
     id="defs2">
    <rect
       x="114.85621"
       y="286.93738"
       width="342.14133"
       height="149.54692"
       id="rect153146" />
    <rect
       x="1.9072772"
       y="276.1055"
       width="318.91382"
       height="65.607086"
       id="rect144537" />
    <rect
       x="-45.012028"
       y="251.62421"
       width="665.94928"
       height="185.39035"
       id="rect129939" />
    <rect
       x="44.350426"
       y="270.672"
       width="358.59854"
       height="114.25043"
       id="rect111363" />
    <rect
       x="262.51132"
       y="57.049492"
       width="258.27798"
       height="44.897243"
       id="rect97783" />
    <rect
       x="11.040508"
       y="63.248127"
       width="513.43274"
       height="82.542191"
       id="rect44345" />
    <rect
       x="13.006122"
       y="7.353354"
       width="280.9476"
       height="38.824299"
       id="rect10395" />
    <clipPath
       clipPathUnits="userSpaceOnUse"
       id="clipPath159840">
      <path
         style="fill:none;stroke:#000000;stroke-width:0.345231px;stroke-linecap:butt;stroke-linejoin:miter;stroke-opacity:1"
         d="M -10.332664,113.67055 9.8587991,93.750272 V 113.67055 H -10.332664"
         id="path159842" />
    </clipPath>
    <style
       id="style165165">.cls-1{fill-rule:evenodd;}</style>
  </defs>
  <g
     inkscape:label="Layer 1"
     inkscape:groupmode="layer"
     id="layer1"
     transform="translate(-28.565094,0.24394634)">
    <path
       style="fill:#5cdb95;fill-opacity:1;stroke:#05386b;stroke-width:1.21528;stroke-linecap:butt;stroke-linejoin:miter;stroke-miterlimit:4;stroke-dasharray:none;stroke-opacity:1"
       d="M 171.79406,0.96234977 156.9486,28.531673 l 6.82528,0.126476 -12.97671,23.942664 v 0 l 12.37118,-3.025981 8.27344,3.46102 10.58554,-3.617465 -0.004,-32.183348 z"
       id="path69719"
       sodipodi:nodetypes="cccccccccc" />
    <g
       id="g165247"
       transform="matrix(0.07106072,0,0,0.07106072,28.56012,28.932197)">
      <path
         class="cls-1"
         d="m 241.87,45 v 0 H 45.07 C 45,158.14 45,129.87 44.94,243 l 198,-0.07 V 45.02 Z M 253.68,0 h 0.11 C 272.9,0.15 287.24,14 288,33.12 v 222.54 c -0.3,15.45 -12.05,28.91 -27.73,31.76 -4.16,0.75 9,0.66 -91.92,0.62 -77.81,0 -58.35,0 -136.17,-0.1 -18,-1 -31.22,-14.69 -32.11,-33.22 l 0.05,-222 C 1.15,13.21 15.85,-0.27 35.7,0 47.3,0.17 236.75,0.16 253.68,0 Z"
         id="path165171" />
      <path
         class="cls-1"
         d="m 214.33,75.75 -0.12,0.11 0.31,-0.31 0.07,140.45 H 74.12 c 25.51,-25.47 19.13,-19.1 44.65,-44.56 1.29,-0.57 0.07,-0.5 8.53,-0.51 h 42.25 l -0.06,-50.32 z"
         id="path165173" />
      <path
         class="cls-1"
         d="m 369,74.21 v 0 a 21.57,21.57 0 0 0 -5.19,0.31 c -11.55,2 -19.61,13.59 -18.25,26.23 1.41,13.08 10.69,21.6 23.15,21.24 12.67,-0.35 22,-11.22 21.41,-25 C 389.61,84.48 380.81,75 369,74.21 Z m 2.4,-21.32 v 0 a 45.61,45.61 0 0 1 42.25,47 c -0.29,10.43 -5.26,22.21 -12.38,29.28 -6.57,6.55 -12.16,10 -20.07,12.36 A 45.71,45.71 0 0 1 323.08,108 c -6.67,-29.88 17.64,-57.6 48.29,-55.11 z"
         id="path165175" />
      <path
         class="cls-1"
         d="m 371.18,237.48 29.48,-71 c 0.89,-2 1.19,-2.09 4.81,-2.15 1.32,0.17 1.28,0.15 2.18,1.38 0.34,1 2.91,-5.32 -18,44.48 l -16.65,39.88 -4.08,-0.2 c -1.45,-1.11 -1,-0.29 -3.28,-5.78 l -32.47,-77.58 c -0.17,-1.31 1,-2.23 2.78,-2.2 3.82,0.07 2.64,-1.64 8.32,11.95 L 370,237.87 c 0.4,0.33 0.9,0.13 1.18,-0.39 z"
         id="path165177" />
      <path
         class="cls-1"
         d="m 427.79,206 v 0 c 0,21 0,15.72 0,36.69 H 475 l 0.08,5.49 c -0.38,1.55 -1.15,1.89 -4.36,1.89 l -50.44,-0.07 0.26,-84.26 c 0.26,-1 1.24,-1.52 2.92,-1.45 3.6,0.13 3.08,0 3.66,0.68 0.79,0.87 0.69,-3.93 0.67,33.63 z"
         id="path165179" />
      <path
         class="cls-1"
         d="m 471.24,74.75 a 8.94,8.94 0 0 0 -5.69,-2.62 l -13.23,-0.35 c 0,12.48 0,9.36 0,21.84 l 11,0.08 c 5.69,0 8.89,-1.93 10.65,-6.56 a 11.28,11.28 0 0 0 -2.73,-12.39 z m 24.21,20.16 v 0 a 28.76,28.76 0 0 1 -9.84,11.37 l -2.09,1.5 c 9.88,18.22 7.41,13.66 17.3,31.88 a 2,2 0 0 1 -1.25,2.69 l -21.74,0.06 c -1,-0.31 -1.3,-0.73 -2.45,-3 l -13.59,-26.5 h -9.44 l -0.15,28 a 2.83,2.83 0 0 1 -2.6,1.53 c -1.87,0.15 -18,0.1 -18.79,-0.05 -1.56,-0.41 -1.89,-1.23 -1.88,-4.71 0.06,-46.8 0.05,-35.1 0.12,-81.9 0.46,-1.73 1.63,-2.18 5.5,-2.09 l 33.27,0.08 c 11.56,0 20.56,4.81 26.22,13.94 a 28.36,28.36 0 0 1 1.77,26.42 c -0.14,0.31 -0.2,0.45 -0.36,0.78 z"
         id="path165181" />
      <path
         class="cls-1"
         d="m 526.14,189.14 v 0 c -5.78,-14.08 -5,-12.31 -5.41,-12.4 a 1,1 0 0 0 -0.76,0.27 c -10.51,25.39 -7.89,19 -18.4,44.43 l 37.85,0.08 z m 13.1,13.73 v 0 c 21.6,51.44 18.94,44.89 18.6,45.89 -0.34,1 -0.91,1.2 -3.11,1.25 -4,0.09 -2.82,1.72 -8.25,-11.44 l -4.05,-9.8 h -43.9 l -8.45,20.47 c -0.6,0.69 -2.05,0.9 -4.89,0.72 -1.37,-0.14 -2.11,-0.8 -2.06,-1.85 0.06,-0.8 -0.8,1.29 12.88,-31.18 12.48,-29.62 9.35,-22.22 21.87,-51.83 0.58,-0.82 1.5,-1 3.67,-0.83 1.31,0.18 1.85,0.72 2.64,2.6 z"
         id="path165183" />
      <path
         class="cls-1"
         d="m 534.38,54.18 c 1.1,0.53 1.63,1.52 1.69,3.18 l -0.22,83.37 a 4.83,4.83 0 0 1 -1.62,1.62 c -0.72,0.15 -2.35,0.16 -21.65,0.14 0.1,-49.53 0.07,-37.15 0.18,-86.68 0.41,-1.7 1,-2 3.87,-2 19.37,0.03 16.85,-0.02 17.75,0.37 z"
         id="path165185" />
      <path
         class="cls-1"
         d="m 577.78,86 v 0 3.47 c 35.22,0 30.71,-0.13 31.54,0.61 1.35,1.32 1.2,-0.58 1.08,13.33 -0.08,2.89 -1,3.55 -4.9,3.54 l -27.7,-0.12 v 15.35 c 46.66,0 40.74,0 41.45,0.36 1.46,0.93 1.38,0.29 1.31,10.33 l 0.14,5.07 a 5.55,5.55 0 0 1 -0.59,3.09 13.71,13.71 0 0 1 -0.86,1.52 l -62.81,-0.08 c -1.67,-0.38 -2,-1.19 -2,-4.35 l 0.09,-82.2 c 0.6,-2 1,-2.14 5.84,-2.13 l 56.85,0.14 c 2.14,0.63 2.2,0.94 2.09,11.43 0,3.49 0,2.62 -0.06,6.1 -0.46,2.31 -1.24,2.76 -4.81,2.75 h -36.59 z"
         id="path165187" />
      <path
         class="cls-1"
         d="m 609.51,189 v 0 c -5.49,-13.47 -4.91,-12.18 -5.54,-12.3 a 0.83,0.83 0 0 0 -0.65,0.2 c -10.56,25.45 -7.92,19.09 -18.49,44.53 h 37.92 z m 13.12,14.08 v 0 c 21.48,51.38 18.84,44.86 18.52,45.66 -1,1.36 -1,1.35 -4.54,1.29 h -2.15 l -8.73,-21.18 h -43.89 l -8.53,21.15 -5.71,-0.12 c -0.88,-0.33 -1.26,-1.33 -1,-2.57 l 34.56,-82.29 c 0.49,-0.68 1.8,-0.91 4.09,-0.71 1.37,0.21 0.26,-2.05 7.73,15.78 z"
         id="path165189" />
      <path
         class="cls-1"
         d="m 714.89,55 v 0 c 0.61,0.84 0.54,-6.52 0.52,57 0,33 0,28.78 -0.31,29.14 -1.52,1.53 0.22,1.34 -12.24,1.35 -12,0 -10.57,0.15 -11.88,-1.2 -0.79,-0.86 0.72,1.64 -13.73,-22.66 -9.67,-16.26 -7.24,-12.2 -17,-28.42 a 0.63,0.63 0 0 0 -0.5,-0.07 c -0.5,0.14 -0.44,-6.89 -0.42,49.24 0,0.33 0,2.75 0,3.08 l -20.48,-0.06 a 2.71,2.71 0 0 1 -2,-2.85 l 0.14,-84 c 0.49,-1.33 1.35,-1.74 3.86,-1.83 4.65,-0.17 17.92,-0.07 19,0.14 2,0.43 0.33,-1.94 11.72,16.62 l 19.51,31.8 a 0.61,0.61 0 0 0 0.74,-0.31 c 0.13,-0.21 0.12,2 0.13,-15.57 0,-35.25 -0.09,-30.71 0.73,-31.77 0.82,-1.06 -1.9,-0.91 19.58,-0.87 a 3.25,3.25 0 0 1 2.63,1.24 z"
         id="path165191" />
      <path
         class="cls-1"
         d="m 723.65,164.3 v 0 c 2.25,0 2.4,0.39 2.39,5.89 l -0.06,79.5 -4.35,0.29 c -1.86,-0.26 0.09,1.93 -13.6,-15.32 -26.16,-33 -19.62,-24.75 -45.8,-57.72 -0.48,-0.3 -0.79,-0.24 -0.94,0.18 v 70.27 c -0.37,2.37 -1.33,2.9 -4.77,2.62 -1.75,-0.24 -1.85,-0.58 -1.84,-6.42 0.06,-44.47 0,-33.35 0.11,-77.83 0.3,-1.4 0.84,-1.58 4.36,-1.49 1.4,0.07 1.56,0.18 2.82,1.91 l 56.76,70.71 c 0.26,0.14 0.54,-0.11 0.72,-0.66 0,-39.39 0,-29.54 0.08,-68.93 0.15,-2.68 0.52,-3 3.38,-3 z"
         id="path165193" />
      <path
         class="cls-1"
         d="m 772.58,53.79 v 0 c 28.29,0 24.65,-0.14 25.43,0.75 1.07,1.22 0.94,-1.11 0.9,16.3 a 3.15,3.15 0 0 1 -3.27,3.38 l -20.06,-0.08 -0.14,66.18 c -0.53,1.66 -1.54,2.17 -4.29,2.17 -20.2,0 -17.54,0.24 -18.62,-1.44 -0.43,-0.74 -0.38,6.89 -0.38,-53.42 V 74.13 L 730.94,74 c -1.31,-0.34 -2,-1.59 -2,-3.47 -0.06,-17.37 -0.22,-15.06 1.07,-16.18 0.68,-0.6 -2.1,-0.53 19.48,-0.55 z"
         id="path165195" />
      <path
         class="cls-1"
         d="m 799.46,181.71 v 0 a 36.47,36.47 0 0 0 -16.88,-9.12 c -4.5,-1 -2.5,-0.95 -24.62,-0.95 l -6,-0.3 c 0,40.77 0,30.58 0,71.35 h 20.38 c 16.56,0 29.42,-8.25 35.27,-22.53 a 34.83,34.83 0 0 0 -8.15,-38.45 z m 4.85,-5.6 v 0 a 42.73,42.73 0 0 1 10.79,45.5 c -6.21,17 -21.74,28 -40.29,28.41 l -28.94,0.07 -1.44,-0.06 c 0,-48.93 0,-36.7 0.05,-85.63 12.12,-0.23 7.92,-0.22 29.42,-0.09 a 43.84,43.84 0 0 1 30.41,11.8 z"
         id="path165197" />
      <path
         class="cls-1"
         d="m 836.71,85.58 v 0 3.84 c 35.26,0 30.78,-0.13 31.4,0.58 1.26,1.4 1.11,-0.54 1,13.58 -0.14,2.88 -0.78,3.32 -4.84,3.32 h -27.6 v 15.26 c 46.87,0 40.95,-0.08 41.42,0.39 1.61,1.61 1.42,0.35 1.34,8.8 l -0.07,8.73 -1.36,2.49 -64.68,-0.08 c 0,-49.56 0,-37.17 0.08,-86.74 0.42,-1.53 1.41,-2 4,-2 l 58.66,0.23 a 2.72,2.72 0 0 1 2,2.56 c 0.18,1.88 0,14.9 -0.2,15.64 -0.61,1.79 -1.13,2 -5,2 h -36.14 z"
         id="path165199" />
      <path
         class="cls-1"
         d="m 847.35,201.25 v -0.09 c 41,-0.1 35.75,-0.19 36.43,0.65 0.89,1.1 0.8,0.15 0.68,6.65 l -42.71,-0.08 -0.09,34.33 53.52,-0.07 0.06,7.42 h -61 v -85.73 h 60.16 c 0,4.19 0,3.14 0,7.33 h -52.69 v 29.65 z"
         id="path165201" />
      <path
         class="cls-1"
         d="m 917.35,85.57 v 0 3.74 c 35.07,0 30.57,-0.12 31.47,0.77 1.08,1.18 0.95,-0.88 0.88,14.38 -0.45,2.12 -1,2.41 -4.86,2.41 l -27.54,0.13 0.05,15.18 h 42.19 l 0.64,5.83 -0.06,10.64 -0.73,2.68 a 14,14 0 0 1 -0.68,1.26 h -64.85 l 0.13,-86.7 c 0.35,-1.58 1.35,-2.11 4,-2.1 l 58.7,0.18 c 1.56,0.35 2.1,1.59 2.13,4.88 0.12,13.53 0.11,13.7 -1.4,14.91 -0.69,0.52 5,0.46 -40.07,0.43 z"
         id="path165203" />
      <path
         class="cls-1"
         d="m 957.35,176.07 v 0 c -4.49,-4 -8.35,-5.32 -16.37,-5.38 -17.77,-0.15 -14.05,-0.15 -26.07,0 v 40.61 l 28.43,-0.17 c 9,-0.06 15.57,-4.35 19.06,-12.52 a 20.42,20.42 0 0 0 -5.05,-22.54 z m 9,29.42 a 29.51,29.51 0 0 1 -9.56,9.19 17.6,17.6 0 0 1 -2.18,1.07 l 14.63,32.43 c 0.13,1.24 -0.23,1.61 -1.74,1.8 -3.61,0.36 -4.66,0 -5.6,-2 -7.77,-17.36 -5.82,-13 -13.59,-30.37 l -33.47,0.15 c 0,17.6 0,13.2 -0.06,30.81 -0.25,1.25 -2.75,1.89 -5,1.28 -1.51,-0.51 -1.33,1.49 -1.32,-14 0,-40.88 0,-30.66 0,-71.54 l 37.54,0.06 a 27,27 0 0 1 20.32,41.08 z"
         id="path165205" />
      <path
         class="cls-1"
         d="m 1018.64,74.66 v 0 c -2.26,-2.11 -4.19,-2.67 -9.52,-2.76 l -9.29,-0.15 c 0,12.5 0,9.37 0,21.86 h 12.11 c 4.69,-0.07 7.62,-2.09 9.42,-6.48 a 11.25,11.25 0 0 0 -2.72,-12.47 z m 24.26,20.19 v 0 a 28.69,28.69 0 0 1 -9.66,11.36 l -2.26,1.53 17.35,32.11 a 2,2 0 0 1 -1.36,2.45 c -1.18,0.27 1.79,0.24 -20.77,0.23 -1.72,-0.23 -2.11,-0.57 -3.32,-2.92 l -13.72,-26.75 -9.31,0.13 -0.13,27.56 c -0.42,1.67 -1.08,1.95 -4.67,2 -19.53,0.05 -16.94,0.21 -18.18,-1.15 -0.55,-0.62 -0.49,7.83 -0.49,-61.41 0,-27.55 0,-24 0.31,-24.65 1.08,-1.71 1.05,-1.71 8.73,-1.65 19.19,0.14 14.39,0.11 33.58,0.2 a 29,29 0 0 1 23.13,15 27.83,27.83 0 0 1 0.77,25.96 z"
         id="path165207" />
      <path
         class="cls-1"
         d="m 998,201.15 v 0 l 37.51,0.06 -0.34,6.05 c -0.59,1.34 1.7,1.17 -16.08,1.17 h -26.48 c 0.06,19.61 0,14.7 0.1,34.31 h 53.38 l -0.07,5.68 c -0.34,1.22 -1.35,1.7 -3.61,1.69 h -57.18 l -0.05,-85.76 h 60.22 v 7.36 h -52.9 v 29.49 z"
         id="path165209" />
      <path
         class="cls-1"
         d="m 1130.17,165.07 v 0 c 0.61,0.73 0.55,-3.38 0.52,40.37 0,25.23 0,18.92 0,44.15 l -3.55,0.5 c -2.64,-0.13 -1.18,1.31 -10.21,-10.07 -28.73,-36.22 -21.55,-27.17 -50.3,-63.38 a 0.54,0.54 0 0 0 -0.77,0.31 l -0.1,70.61 c 0,2.15 -1.62,2.91 -5,2.37 -1.65,-0.34 -1.45,3.9 -1.4,-29.72 l 0.09,-54.41 c 0.29,-1.39 1.18,-1.63 5,-1.41 0.85,0.1 -1.47,-2.68 16.23,19.44 l 42.46,53 a 0.68,0.68 0 0 0 0.91,-0.2 l 0.1,-69.3 c 0.1,-2 0.36,-2.52 1.38,-2.9 1.02,-0.38 4,-0.09 4.45,0.45 z"
         id="path165211" />
      <path
         class="cls-1"
         d="m 1080.2,53.75 v 0 c 2.48,0.39 3.26,1.46 3.25,4.48 l -0.09,82 c -0.46,1.91 -1.25,2.29 -4.88,2.28 -20.11,0 -17.5,0.22 -18.33,-1.62 -0.32,-0.86 -0.28,4.87 -0.28,-40.12 0,-51.23 -0.05,-44.72 0.34,-45.54 0.92,-1.66 0.39,-1.59 11.22,-1.53 z"
         id="path165213" />
      <path
         class="cls-1"
         d="m 1180.88,55.12 v 0 c 0.5,0.48 0.44,-6.1 0.43,46.07 0,23.35 0,17.52 0,40.87 l -5.45,0.61 -16.71,-0.11 c -2.24,-0.38 1,4.57 -22.41,-34.64 L 1126.35,90.5 c -0.36,-0.3 -0.82,-0.28 -1,0 l -0.08,48.87 c -0.12,1.81 0,1.56 -1.22,2.73 -1,0.47 1.64,0.41 -18.81,0.37 -2.16,-0.42 -2.54,-1.17 -2.54,-5 l 0.14,-81.51 c 0.52,-2.16 1.64,-2.53 7.24,-2.34 7.57,0 5.68,0 13.26,0 4.56,0 2.4,-2.61 15.4,18.79 10.31,17 7.73,12.75 18.12,29.68 a 0.58,0.58 0 0 0 0.79,-0.32 c 0.27,-0.52 0.27,-0.41 0.19,-38.7 0,-8.8 -0.19,-7.51 1.26,-9 0.89,-0.49 -1.86,-0.45 19.27,-0.27 1.54,0.25 1.44,0.2 2.51,1.32 z"
         id="path165215" />
      <path
         class="cls-1"
         d="m 1260.14,77.56 v 0 l -1.59,2.25 c -3,-1.66 -2.27,-1.25 -5.31,-2.89 a 22,22 0 0 0 -26.58,4.1 c -6.93,7.28 -8.59,19.78 -3.85,28.94 4.87,9.42 13.92,13.72 24.54,11.66 l 3.22,-0.62 c -0.11,-18.87 -0.26,-16.35 1,-17.66 0.79,-0.7 -1.64,-0.61 17,-0.6 2.52,0.24 3.45,1.43 3.45,4.42 0,31.41 0.08,27.36 -0.8,28.41 -3.24,3.57 -15.79,7.48 -25.43,7.91 -13.41,0.6 -24.07,-2.91 -33.53,-11 a 44.59,44.59 0 0 1 -6.49,-61.19 c 14.49,-19.15 41.61,-24.22 61.52,-11.49 l 3.33,2.91 z"
         id="path165217" />
    </g>
    <g
       aria-label="FOREST CUP"
       id="text3502"
       style="font-size:25.5356px;line-height:1.25;stroke-width:0.638392">
      <path
         d="m 31.783925,15.586455 h 6.613721 V 12.343434 H 31.783925 V 8.2066663 h 7.558538 V 4.9636451 H 28.643046 V 23.298206 h 3.140879 z"
         style="font-weight:bold;font-stretch:semi-condensed;font-family:'Nimbus Sans Narrow';-inkscape-font-specification:'Nimbus Sans Narrow Bold Semi-Condensed'"
         id="path32392" />
      <path
         d="m 47.820228,4.4784686 c -2.093919,0 -3.983553,0.8682105 -5.260333,2.4258821 -1.353387,1.6342784 -2.068384,4.1112313 -2.068384,7.2521103 0,2.272669 0.383034,4.187839 1.098031,5.694439 1.200173,2.451418 3.498377,3.932483 6.128544,3.932483 2.017312,0 3.906947,-0.893746 5.158191,-2.425882 1.353387,-1.634279 2.068384,-4.111232 2.068384,-7.226575 0,-3.089808 -0.714997,-5.5922969 -2.068384,-7.2265753 C 51.625033,5.3977503 49.735398,4.4784686 47.820228,4.4784686 Z m -0.05107,3.2430213 c 0.995889,0 1.991777,0.4851764 2.655703,1.3278513 0.893746,1.0724948 1.378922,2.8344518 1.378922,5.0049778 0,4.06016 -1.532136,6.486042 -4.085696,6.486042 -2.55356,0 -4.085696,-2.425882 -4.085696,-6.460507 0,-3.958018 1.557672,-6.3583641 4.136767,-6.3583641 z"
         style="font-weight:bold;font-stretch:semi-condensed;font-family:'Nimbus Sans Narrow';-inkscape-font-specification:'Nimbus Sans Narrow Bold Semi-Condensed'"
         id="path32394" />
      <path
         d="m 57.447114,23.298206 h 3.064272 v -7.149968 h 3.243021 c 2.119455,0.05107 2.476954,0.587319 2.451418,3.472842 0.02554,1.736421 0.102143,2.630167 0.357499,3.677126 h 3.472841 V 22.81303 c -0.536247,-0.255356 -0.63839,-0.663926 -0.663925,-2.272669 0.02553,-4.28998 -0.229821,-5.132655 -1.91517,-6.026401 1.532136,-0.766068 2.323739,-2.221598 2.323739,-4.341052 0,-3.1664149 -1.864099,-5.2092629 -4.749622,-5.2092629 H 57.447114 Z M 60.511386,13.032895 V 8.1045239 h 3.932483 c 1.429993,0 2.196061,0.8682105 2.196061,2.4769531 0,1.68535 -0.766068,2.451418 -2.425882,2.451418 z"
         style="font-weight:bold;font-stretch:semi-condensed;font-family:'Nimbus Sans Narrow';-inkscape-font-specification:'Nimbus Sans Narrow Bold Semi-Condensed'"
         id="path32396" />
      <path
         d="M 83.697646,4.9636451 H 72.640731 V 23.298206 h 11.414413 v -3.243021 h -8.350141 v -4.749622 h 7.354253 V 12.062542 H 75.705003 V 8.2066663 h 7.992643 z"
         style="font-weight:bold;font-stretch:semi-condensed;font-family:'Nimbus Sans Narrow';-inkscape-font-specification:'Nimbus Sans Narrow Bold Semi-Condensed'"
         id="path32398" />
      <path
         d="m 85.817038,17.654839 c 0.05107,1.481064 0.229821,2.221597 0.689461,3.140878 0.970353,1.940706 2.936594,2.987666 5.566761,2.987666 3.804805,0 6.103009,-2.247133 6.103009,-5.949795 0,-2.732309 -1.123567,-4.136768 -3.932483,-4.979442 L 90.56666,11.756115 c -1.149102,-0.357499 -1.583207,-0.868211 -1.583207,-1.9151702 0,-1.3789225 0.995888,-2.2215973 2.681238,-2.2215973 1.864099,0 2.78338,0.8426748 3.013201,2.7833805 h 3.0132 c -0.22982,-3.8303401 -2.323739,-5.9242594 -5.924259,-5.9242594 -3.574984,0 -5.719974,2.1449905 -5.719974,5.7455104 0,1.583207 0.434105,2.808916 1.27678,3.651591 0.63839,0.663925 1.583207,1.098031 3.498377,1.634278 l 1.608743,0.459641 c 2.119455,0.612854 2.732309,1.123566 2.732309,2.32374 0,1.5066 -1.098031,2.349275 -3.038737,2.349275 -2.119454,0 -3.166414,-0.970353 -3.294092,-2.987665 z"
         style="font-weight:bold;font-stretch:semi-condensed;font-family:'Nimbus Sans Narrow';-inkscape-font-specification:'Nimbus Sans Narrow Bold Semi-Condensed'"
         id="path32400" />
      <path
         d="m 106.90939,8.2066663 h 4.54533 V 4.9636451 H 99.22317 v 3.2430212 h 4.54534 V 23.298206 h 3.14088 z"
         style="font-weight:bold;font-stretch:semi-condensed;font-family:'Nimbus Sans Narrow';-inkscape-font-specification:'Nimbus Sans Narrow Bold Semi-Condensed'"
         id="path32402" />
      <path
         d="m 131.88315,10.964511 c -0.15321,-1.455529 -0.38303,-2.221597 -0.94482,-3.2430211 -1.1491,-2.0939192 -3.11534,-3.2430213 -5.49015,-3.2430213 -4.28998,0 -6.97122,3.7281977 -6.97122,9.7035284 0,5.949795 2.60463,9.601386 6.89461,9.601386 1.99178,0 3.67713,-0.817139 4.82623,-2.374811 0.86821,-1.174638 1.27678,-2.247133 1.68535,-4.392123 h -3.14088 c -0.22982,1.021424 -0.38303,1.481064 -0.71499,2.017312 -0.61286,0.944817 -1.5066,1.429994 -2.63017,1.429994 -2.32374,0 -3.7282,-2.349276 -3.7282,-6.256223 0,-4.06016 1.40446,-6.4094353 3.85588,-6.4094353 1.04696,0 1.9407,0.4596408 2.47695,1.2257089 0.33196,0.5362476 0.51071,0.9448172 0.74053,1.9407054 z"
         style="font-weight:bold;font-stretch:semi-condensed;font-family:'Nimbus Sans Narrow';-inkscape-font-specification:'Nimbus Sans Narrow Bold Semi-Condensed'"
         id="path32404" />
      <path
         d="M 146.31075,4.9636451 H 143.1188 V 17.041984 c 0,2.298204 -1.02143,3.498377 -2.91106,3.498377 -1.81303,0 -2.83445,-1.327851 -2.83445,-3.677126 V 4.9636451 h -3.19195 V 17.118591 c 0,4.23891 2.17052,6.664792 6.0264,6.664792 3.98355,0 6.10301,-2.400347 6.10301,-6.894612 z"
         style="font-weight:bold;font-stretch:semi-condensed;font-family:'Nimbus Sans Narrow';-inkscape-font-specification:'Nimbus Sans Narrow Bold Semi-Condensed'"
         id="path32406" />
      <path
         d="m 152.51587,16.65895 h 3.60052 c 2.91106,0 4.8007,-2.374811 4.8007,-6.000866 0,-3.4728417 -1.83857,-5.6944389 -4.67302,-5.6944389 H 149.375 V 23.298206 h 3.14087 z m 0,-3.140879 V 8.1045239 h 2.50249 c 1.96624,0 2.75785,0.7405325 2.75785,2.6301671 0,1.889634 -0.76607,2.78338 -2.34928,2.78338 z"
         style="font-weight:bold;font-stretch:semi-condensed;font-family:'Nimbus Sans Narrow';-inkscape-font-specification:'Nimbus Sans Narrow Bold Semi-Condensed'"
         id="path32408" />
    </g>
  </g>
</svg>
