<svg xmlns="http://www.w3.org/2000/svg" id="Layer_1" data-name="Layer 1" viewBox="0 0 1272.07 288.07"><defs><style>.cls-1{fill-rule:evenodd;}</style></defs><title>OrienteeringVlaanderen_logo</title><path class="cls-1" d="M241.87,45h0L45.07,45C45,158.14,45,129.87,44.94,243l198-.07,0-197.91ZM253.68,0h.11C272.9.15,287.24,14,288,33.12l0,222.54c-.3,15.45-12.05,28.91-27.73,31.76-4.16.75,9,.66-91.92.62-77.81,0-58.35,0-136.17-.1-18-1-31.22-14.69-32.11-33.22l.05-222C1.15,13.21,15.85-.27,35.7,0,47.3.17,236.75.16,253.68,0Z"></path><path class="cls-1" d="M214.33,75.75l-.12.11.31-.31L214.59,216H74.12c25.51-25.47,19.13-19.1,44.65-44.56,1.29-.57.07-.5,8.53-.51l42.25,0-.06-50.32Z"></path><path class="cls-1" d="M369,74.21h0a21.57,21.57,0,0,0-5.19.31c-11.55,2-19.61,13.59-18.25,26.23,1.41,13.08,10.69,21.6,23.15,21.24,12.67-.35,22-11.22,21.41-25C389.61,84.48,380.81,75,369,74.21Zm2.4-21.32h0a45.61,45.61,0,0,1,42.25,47c-.29,10.43-5.26,22.21-12.38,29.28-6.57,6.55-12.16,10-20.07,12.36A45.71,45.71,0,0,1,323.08,108C316.41,78.12,340.72,50.4,371.37,52.89Z"></path><path class="cls-1" d="M371.18,237.48l29.48-71c.89-2,1.19-2.09,4.81-2.15,1.32.17,1.28.15,2.18,1.38.34,1,2.91-5.32-18,44.48L373,250.07l-4.08-.2c-1.45-1.11-1-.29-3.28-5.78l-32.47-77.58c-.17-1.31,1-2.23,2.78-2.2,3.82.07,2.64-1.64,8.32,11.95L370,237.87C370.4,238.2,370.9,238,371.18,237.48Z"></path><path class="cls-1" d="M427.79,206h0c0,21,0,15.72,0,36.69H475l.08,5.49c-.38,1.55-1.15,1.89-4.36,1.89L420.28,250l.26-84.26c.26-1,1.24-1.52,2.92-1.45,3.6.13,3.08,0,3.66.68.79.87.69-3.93.67,33.63Z"></path><path class="cls-1" d="M471.24,74.75a8.94,8.94,0,0,0-5.69-2.62l-13.23-.35c0,12.48,0,9.36,0,21.84l11,.08c5.69,0,8.89-1.93,10.65-6.56A11.28,11.28,0,0,0,471.24,74.75Zm24.21,20.16h0a28.76,28.76,0,0,1-9.84,11.37l-2.09,1.5c9.88,18.22,7.41,13.66,17.3,31.88a2,2,0,0,1-1.25,2.69l-21.74.06c-1-.31-1.3-.73-2.45-3l-13.59-26.5-9.44,0-.15,28a2.83,2.83,0,0,1-2.6,1.53c-1.87.15-18,.1-18.79-.05-1.56-.41-1.89-1.23-1.88-4.71.06-46.8.05-35.1.12-81.9.46-1.73,1.63-2.18,5.5-2.09l33.27.08c11.56,0,20.56,4.81,26.22,13.94a28.36,28.36,0,0,1,1.77,26.42C495.67,94.44,495.61,94.58,495.45,94.91Z"></path><path class="cls-1" d="M526.14,189.14h0c-5.78-14.08-5-12.31-5.41-12.4a1,1,0,0,0-.76.27c-10.51,25.39-7.89,19-18.4,44.43l37.85.08Zm13.1,13.73,0,0c21.6,51.44,18.94,44.89,18.6,45.89s-.91,1.2-3.11,1.25c-4,.09-2.82,1.72-8.25-11.44l-4.05-9.8-43.9,0-8.45,20.47c-.6.69-2.05.9-4.89.72-1.37-.14-2.11-.8-2.06-1.85.06-.8-.8,1.29,12.88-31.18,12.48-29.62,9.35-22.22,21.87-51.83.58-.82,1.5-1,3.67-.83,1.31.18,1.85.72,2.64,2.6Z"></path><path class="cls-1" d="M534.38,54.18c1.1.53,1.63,1.52,1.69,3.18l-.22,83.37a4.83,4.83,0,0,1-1.62,1.62c-.72.15-2.35.16-21.65.14.1-49.53.07-37.15.18-86.68.41-1.7,1-2,3.87-2C536,53.84,533.48,53.79,534.38,54.18Z"></path><path class="cls-1" d="M577.78,86h0v3.47c35.22,0,30.71-.13,31.54.61,1.35,1.32,1.2-.58,1.08,13.33-.08,2.89-1,3.55-4.9,3.54l-27.7-.12,0,15.35c46.66,0,40.74,0,41.45.36,1.46.93,1.38.29,1.31,10.33l.14,5.07a5.55,5.55,0,0,1-.59,3.09,13.71,13.71,0,0,1-.86,1.52l-62.81-.08c-1.67-.38-2-1.19-2-4.35l.09-82.2c.6-2,1-2.14,5.84-2.13l56.85.14c2.14.63,2.2.94,2.09,11.43,0,3.49,0,2.62-.06,6.1-.46,2.31-1.24,2.76-4.81,2.75l-36.59,0Z"></path><path class="cls-1" d="M609.51,189h0c-5.49-13.47-4.91-12.18-5.54-12.3a.83.83,0,0,0-.65.2c-10.56,25.45-7.92,19.09-18.49,44.53l37.92,0Zm13.12,14.08h0c21.48,51.38,18.84,44.86,18.52,45.66-1,1.36-1,1.35-4.54,1.29l-2.15,0-8.73-21.18-43.89,0L573.31,250l-5.71-.12c-.88-.33-1.26-1.33-1-2.57l34.56-82.29c.49-.68,1.8-.91,4.09-.71,1.37.21.26-2.05,7.73,15.78Z"></path><path class="cls-1" d="M714.89,55h0c.61.84.54-6.52.52,57,0,33,0,28.78-.31,29.14-1.52,1.53.22,1.34-12.24,1.35-12,0-10.57.15-11.88-1.2-.79-.86.72,1.64-13.73-22.66-9.67-16.26-7.24-12.2-17-28.42a.63.63,0,0,0-.5-.07c-.5.14-.44-6.89-.42,49.24,0,.33,0,2.75,0,3.08l-20.48-.06a2.71,2.71,0,0,1-2-2.85l.14-84c.49-1.33,1.35-1.74,3.86-1.83,4.65-.17,17.92-.07,19,.14,2,.43.33-1.94,11.72,16.62l19.51,31.8a.61.61,0,0,0,.74-.31c.13-.21.12,2,.13-15.57,0-35.25-.09-30.71.73-31.77s-1.9-.91,19.58-.87A3.25,3.25,0,0,1,714.89,55Z"></path><path class="cls-1" d="M723.65,164.3v0c2.25,0,2.4.39,2.39,5.89l-.06,79.5-4.35.29c-1.86-.26.09,1.93-13.6-15.32-26.16-33-19.62-24.75-45.8-57.72-.48-.3-.79-.24-.94.18v70.27c-.37,2.37-1.33,2.9-4.77,2.62-1.75-.24-1.85-.58-1.84-6.42.06-44.47,0-33.35.11-77.83.3-1.4.84-1.58,4.36-1.49,1.4.07,1.56.18,2.82,1.91l56.76,70.71c.26.14.54-.11.72-.66,0-39.39,0-29.54.08-68.93.15-2.68.52-3,3.38-3Z"></path><path class="cls-1" d="M772.58,53.79h0c28.29,0,24.65-.14,25.43.75,1.07,1.22.94-1.11.9,16.3a3.15,3.15,0,0,1-3.27,3.38l-20.06-.08-.14,66.18c-.53,1.66-1.54,2.17-4.29,2.17-20.2,0-17.54.24-18.62-1.44-.43-.74-.38,6.89-.38-53.42V74.13L730.94,74c-1.31-.34-2-1.59-2-3.47-.06-17.37-.22-15.06,1.07-16.18.68-.6-2.1-.53,19.48-.55Z"></path><path class="cls-1" d="M799.46,181.71h0a36.47,36.47,0,0,0-16.88-9.12c-4.5-1-2.5-.95-24.62-.95l-6-.3c0,40.77,0,30.58,0,71.35l20.38,0c16.56,0,29.42-8.25,35.27-22.53A34.83,34.83,0,0,0,799.46,181.71Zm4.85-5.6h0a42.73,42.73,0,0,1,10.79,45.5c-6.21,17-21.74,28-40.29,28.41l-28.94.07-1.44-.06c0-48.93,0-36.7.05-85.63,12.12-.23,7.92-.22,29.42-.09A43.84,43.84,0,0,1,804.31,176.11Z"></path><path class="cls-1" d="M836.71,85.58h0v3.84c35.26,0,30.78-.13,31.4.58,1.26,1.4,1.11-.54,1,13.58-.14,2.88-.78,3.32-4.84,3.32l-27.6,0v15.26c46.87,0,40.95-.08,41.42.39,1.61,1.61,1.42.35,1.34,8.8l-.07,8.73L878,142.57l-64.68-.08c0-49.56,0-37.17.08-86.74.42-1.53,1.41-2,4-2l58.66.23a2.72,2.72,0,0,1,2,2.56c.18,1.88,0,14.9-.2,15.64-.61,1.79-1.13,2-5,2H836.72Z"></path><path class="cls-1" d="M847.35,201.25l0-.09c41-.1,35.75-.19,36.43.65.89,1.1.8.15.68,6.65l-42.71-.08-.09,34.33,53.52-.07.06,7.42h-61l0-85.73h60.16c0,4.19,0,3.14,0,7.33l-52.69,0,0,29.65Z"></path><path class="cls-1" d="M917.35,85.57h0v3.74c35.07,0,30.57-.12,31.47.77,1.08,1.18.95-.88.88,14.38-.45,2.12-1,2.41-4.86,2.41L917.3,107l.05,15.18,42.19,0,.64,5.83-.06,10.64-.73,2.68a14,14,0,0,1-.68,1.26H893.86l.13-86.7c.35-1.58,1.35-2.11,4-2.1l58.7.18c1.56.35,2.1,1.59,2.13,4.88.12,13.53.11,13.7-1.4,14.91-.69.52,5,.46-40.07.43Z"></path><path class="cls-1" d="M957.35,176.07h0c-4.49-4-8.35-5.32-16.37-5.38-17.77-.15-14.05-.15-26.07,0v40.61l28.43-.17c9-.06,15.57-4.35,19.06-12.52A20.42,20.42,0,0,0,957.35,176.07Zm9,29.42a29.51,29.51,0,0,1-9.56,9.19,17.6,17.6,0,0,1-2.18,1.07l14.63,32.43c.13,1.24-.23,1.61-1.74,1.8-3.61.36-4.66,0-5.6-2-7.77-17.36-5.82-13-13.59-30.37l-33.47.15c0,17.6,0,13.2-.06,30.81-.25,1.25-2.75,1.89-5,1.28-1.51-.51-1.33,1.49-1.32-14,0-40.88,0-30.66,0-71.54l37.54.06a27,27,0,0,1,20.32,41.08Z"></path><path class="cls-1" d="M1018.64,74.66h0c-2.26-2.11-4.19-2.67-9.52-2.76l-9.29-.15c0,12.5,0,9.37,0,21.86l12.11,0c4.69-.07,7.62-2.09,9.42-6.48A11.25,11.25,0,0,0,1018.64,74.66Zm24.26,20.19h0a28.69,28.69,0,0,1-9.66,11.36l-2.26,1.53,17.35,32.11a2,2,0,0,1-1.36,2.45c-1.18.27,1.79.24-20.77.23-1.72-.23-2.11-.57-3.32-2.92l-13.72-26.75-9.31.13-.13,27.56c-.42,1.67-1.08,1.95-4.67,2-19.53.05-16.94.21-18.18-1.15-.55-.62-.49,7.83-.49-61.41,0-27.55,0-24,.31-24.65,1.08-1.71,1.05-1.71,8.73-1.65,19.19.14,14.39.11,33.58.2a29,29,0,0,1,23.13,15A27.83,27.83,0,0,1,1042.9,94.85Z"></path><path class="cls-1" d="M998,201.15l0,0,37.51.06-.34,6.05c-.59,1.34,1.7,1.17-16.08,1.17H992.61c.06,19.61,0,14.7.1,34.31h53.38l-.07,5.68c-.34,1.22-1.35,1.7-3.61,1.69l-57.18,0-.05-85.76,60.22,0,0,7.36h-52.9l0,29.49Z"></path><path class="cls-1" d="M1130.17,165.07l0,0c.61.73.55-3.38.52,40.37,0,25.23,0,18.92,0,44.15l-3.55.5c-2.64-.13-1.18,1.31-10.21-10.07-28.73-36.22-21.55-27.17-50.3-63.38a.54.54,0,0,0-.77.31l-.1,70.61c0,2.15-1.62,2.91-5,2.37-1.65-.34-1.45,3.9-1.4-29.72l.09-54.41c.29-1.39,1.18-1.63,5-1.41.85.1-1.47-2.68,16.23,19.44l42.46,53a.68.68,0,0,0,.91-.2l.1-69.3c.1-2,.36-2.52,1.38-2.9s4-.09,4.45.45Z"></path><path class="cls-1" d="M1080.2,53.75l0,0c2.48.39,3.26,1.46,3.25,4.48l-.09,82c-.46,1.91-1.25,2.29-4.88,2.28-20.11,0-17.5.22-18.33-1.62-.32-.86-.28,4.87-.28-40.12,0-51.23-.05-44.72.34-45.54.92-1.66.39-1.59,11.22-1.53Z"></path><path class="cls-1" d="M1180.88,55.12v0c.5.48.44-6.1.43,46.07,0,23.35,0,17.52,0,40.87l-5.45.61-16.71-.11c-2.24-.38,1,4.57-22.41-34.64l-10.39-17.42c-.36-.3-.82-.28-1,0l-.08,48.87c-.12,1.81,0,1.56-1.22,2.73-1,.47,1.64.41-18.81.37-2.16-.42-2.54-1.17-2.54-5l.14-81.51c.52-2.16,1.64-2.53,7.24-2.34,7.57,0,5.68,0,13.26,0,4.56,0,2.4-2.61,15.4,18.79,10.31,17,7.73,12.75,18.12,29.68a.58.58,0,0,0,.79-.32c.27-.52.27-.41.19-38.7,0-8.8-.19-7.51,1.26-9,.89-.49-1.86-.45,19.27-.27C1179.91,54.05,1179.81,54,1180.88,55.12Z"></path><path class="cls-1" d="M1260.14,77.56l0,0-1.59,2.25c-3-1.66-2.27-1.25-5.31-2.89a22,22,0,0,0-26.58,4.1c-6.93,7.28-8.59,19.78-3.85,28.94,4.87,9.42,13.92,13.72,24.54,11.66l3.22-.62c-.11-18.87-.26-16.35,1-17.66.79-.7-1.64-.61,17-.6,2.52.24,3.45,1.43,3.45,4.42,0,31.41.08,27.36-.8,28.41-3.24,3.57-15.79,7.48-25.43,7.91-13.41.6-24.07-2.91-33.53-11a44.59,44.59,0,0,1-6.49-61.19c14.49-19.15,41.61-24.22,61.52-11.49l3.33,2.91Z"></path></svg>