<?xml version="1.0" encoding="UTF-8" standalone="no"?>
<!-- Created with Inkscape (http://www.inkscape.org/) -->

<svg
   width="200"
   height="200"
   viewBox="0 0 52.916667 52.916667"
   version="1.1"
   id="svg5"
   xmlns="http://www.w3.org/2000/svg"
   xmlns:svg="http://www.w3.org/2000/svg">
  <defs
     id="defs2">
    <rect
       x="53.23214"
       y="51.262798"
       width="389.04083"
       height="252.14301"
       id="rect4653" />
  </defs>
  <g
     id="layer1"
     transform="translate(-16.819128,-18.99574)">
    <g
       aria-label="?"
       transform="matrix(0.28328455,0,0,0.28328455,17.332027,10.299014)"
       id="text4651"
       style="font-size:144px;line-height:1.25;white-space:pre;shape-inside:url(#rect4653)">
      <path
         d="m 80.724609,160.81055 h 14.273438 v 17.85937 H 80.724609 Z M 94.576172,150.47461 H 81.146484 v -10.82813 q 0,-7.10156 1.96875,-11.67187 1.96875,-4.57031 8.296875,-10.61719 l 6.328125,-6.25781 q 4.007816,-3.72656 5.765626,-7.03125 1.82812,-3.30469 1.82812,-6.750001 0,-6.257812 -4.64062,-10.125 -4.570313,-3.867187 -12.164063,-3.867187 -5.554688,0 -11.882813,2.460937 -6.257812,2.460938 -13.078125,7.171875 v -13.21875 q 6.609375,-4.007812 13.359375,-5.976562 6.820313,-1.96875 14.0625,-1.96875 12.937496,0 20.742186,6.820312 7.875,6.820313 7.875,18 0,5.343746 -2.53125,10.195316 -2.53125,4.78125 -8.85937,10.82812 l -6.1875,6.04688 q -3.304691,3.30468 -4.710941,5.20312 -1.335937,1.82813 -1.898437,3.58594 -0.421875,1.47656 -0.632813,3.58594 -0.210937,2.10937 -0.210937,5.76562 z"
         style="font-size:144px;line-height:1.25;white-space:pre;shape-inside:url(#rect4653)"
         id="path24677" />
    </g>
  </g>
</svg>
